<svg viewBox="0 0 24 24" fill="#9cff93" xmlns="http://www.w3.org/2000/svg">
  <path d="M12 2a10 10 0 0 0-10 10 10 10 0 0 0 10 10 10 10 0 0 0 10-10c0-.5 0-.94-.13-1.41a3.5 3.5 0 0 1-2.37.91 3.5 3.5 0 0 1-3.5-3.5c0-.5.13-1 .31-1.44a3.49 3.49 0 0 1-2.81-3.43c0-.45.08-.89.25-1.29C13.46 2.27 12.74 2 12 2M8.5 8A1.5 1.5 0 0 1 10 9.5 1.5 1.5 0 0 1 8.5 11 1.5 1.5 0 0 1 7 9.5 1.5 1.5 0 0 1 8.5 8M14 12a1 1 0 0 1 1 1 1 1 0 0 1-1 1 1 1 0 0 1-1-1 1 1 0 0 1 1-1m-5 3a1.5 1.5 0 0 1 1.5 1.5A1.5 1.5 0 0 1 9 18a1.5 1.5 0 0 1-1.5-1.5A1.5 1.5 0 0 1 9 15Z"/>
</svg>